<svg xmlns="http://www.w3.org/2000/svg" version="1.1" xmlns:xlink="http://www.w3.org/1999/xlink" xmlns:svgjs="http://svgjs.dev/svgjs" width="1000" height="999" viewBox="0 0 1000 999"><g transform="matrix(1,0,0,1,-0.215743440233382,-0.21552769679306039)"><svg viewBox="0 0 343 343" data-background-color="#ffffff" preserveAspectRatio="xMidYMid meet" height="999" width="1000" xmlns="http://www.w3.org/2000/svg" xmlns:xlink="http://www.w3.org/1999/xlink"><g id="tight-bounds" transform="matrix(1,0,0,1,0.0740000000000407,0.07400000000001228)"><svg viewBox="0 0 342.85155851775386 342.85155851775386" height="342.85155851775386" width="342.85155851775386"><g><svg></svg></g><g><svg viewBox="0 0 342.85155851775386 342.85155851775386" height="342.85155851775386" width="342.85155851775386"><g><path d="M0 171.426c0-94.676 76.75-171.426 171.426-171.426 94.676 0 171.426 76.75 171.426 171.426 0 94.676-76.75 171.426-171.426 171.426-94.676 0-171.426-76.75-171.426-171.426zM171.426 339.573c92.865 0 168.148-75.282 168.147-168.147 0-92.865-75.282-168.148-168.147-168.148-92.865 0-168.148 75.282-168.148 168.148 0 92.865 75.282 168.148 168.148 168.147z" data-fill-palette-color="tertiary" fill="#010c80" stroke="transparent"></path><ellipse rx="164.56874808852186" ry="164.56874808852186" cx="171.42577925887693" cy="171.42577925887693" fill="#010c80" stroke="transparent" stroke-width="0" fill-opacity="1" data-fill-palette-color="tertiary"></ellipse></g><g transform="matrix(1,0,0,1,64.84655864529837,143.0257865757476)"><svg viewBox="0 0 213.1584412271571 56.79998536625871" height="56.79998536625871" width="213.1584412271571"><g><svg viewBox="0 0 213.1584412271571 56.79998536625871" height="56.79998536625871" width="213.1584412271571"><g><svg viewBox="0 0 213.1584412271571 56.79998536625871" height="56.79998536625871" width="213.1584412271571"><g><svg viewBox="0 0 213.1584412271571 56.79998536625871" height="56.79998536625871" width="213.1584412271571"><g id="textblocktransform"><svg viewBox="0 0 213.1584412271571 56.79998536625871" height="56.79998536625871" width="213.1584412271571" id="textblock"><g><svg viewBox="0 0 213.1584412271571 36.34994763180577" height="36.34994763180577" width="213.1584412271571"><g transform="matrix(1,0,0,1,0,0)"><svg width="213.1584412271571" viewBox="2.200000047683716 -36.54999923706055 217.8300018310547 37.14999771118164" height="36.34994763180577" data-palette-color="#ffffff"><path d="M15.2-13.75L15.2-18.1 28.85-18.1 28.85 0 25.6 0 24.6-3.8Q21.5 0.6 15.65 0.6L15.65 0.6Q9.1 0.6 5.65-3.83 2.2-8.25 2.2-17.15L2.2-17.15Q2.2-25.95 5.85-30.43 9.5-34.9 16.2-34.9L16.2-34.9Q19.8-34.9 22.68-33.5 25.55-32.1 27.2-29.3 28.85-26.5 28.85-22.5L28.85-22.5 23.7-22.5Q23.7-26.4 21.65-28.4 19.6-30.4 16.15-30.4L16.15-30.4Q11.95-30.4 9.7-27.35 7.45-24.3 7.45-18.4L7.45-18.4 7.45-15.9Q7.45-9.95 9.6-6.93 11.75-3.9 16-3.9L16-3.9Q19.85-3.9 21.78-6.25 23.7-8.6 23.7-13.2L23.7-13.2 23.7-13.75 15.2-13.75ZM43.9 0.6Q38.85 0.6 36.35-2.7 33.85-6 33.85-13.15L33.85-13.15Q33.85-20.2 36.32-23.55 38.8-26.9 43.8-26.9L43.8-26.9Q48.3-26.9 50.5-23.83 52.7-20.75 52.7-14.1L52.7-14.1 52.7-11.85 38.75-11.85Q38.8-7.55 40.02-5.5 41.25-3.45 43.95-3.45L43.95-3.45Q45.8-3.45 46.92-4.95 48.05-6.45 48.05-9.05L48.05-9.05 52.7-9.05Q52.7-4.55 50.27-1.98 47.85 0.6 43.9 0.6L43.9 0.6ZM38.8-15.75L47.8-15.75Q47.8-19.2 46.8-21.03 45.8-22.85 43.8-22.85L43.8-22.85Q41.4-22.85 40.22-21.1 39.05-19.35 38.8-15.75L38.8-15.75ZM57.6 0L57.6-26.3 61.3-26.3 61.9-23.2 62.2-23.2Q63.25-25 64.9-25.95 66.55-26.9 68.65-26.9L68.65-26.9Q75.3-26.9 75.3-18.8L75.3-18.8 75.3 0 70.6 0 70.6-18.05Q70.6-20.6 69.67-21.65 68.75-22.7 66.95-22.7L66.95-22.7Q65-22.7 63.65-20.88 62.3-19.05 62.3-16.1L62.3-16.1 62.3 0 57.6 0ZM81.54 0L81.54-26.3 86.24-26.3 86.24 0 81.54 0ZM81.44-31.1L81.44-36.15 86.24-36.15 86.24-31.1 81.44-31.1ZM99.19 0.6Q92.49 0.6 92.49-7.5L92.49-7.5 92.49-26.3 97.19-26.3 97.19-8.25Q97.19-5.7 98.12-4.65 99.04-3.6 100.84-3.6L100.84-3.6Q102.79-3.6 104.14-5.43 105.49-7.25 105.49-10.15L105.49-10.15 105.49-26.3 110.19-26.3 110.19 0 106.49 0 105.89-3.1 105.59-3.1Q104.54-1.3 102.89-0.35 101.24 0.6 99.19 0.6L99.19 0.6ZM123.54 0.6Q119.24 0.6 116.99-1.65 114.74-3.9 114.74-7.3L114.74-7.3Q114.74-7.85 114.76-8.03 114.79-8.2 114.79-8.25L114.79-8.25 119.64-8.25 119.64-7.8Q119.69-5.55 120.81-4.48 121.94-3.4 123.74-3.4L123.74-3.4Q125.34-3.4 126.44-4.33 127.54-5.25 127.54-7L127.54-7Q127.54-8.3 126.86-9.13 126.19-9.95 125.19-10.43 124.19-10.9 122.44-11.5L122.44-11.5Q120.14-12.25 118.71-12.98 117.29-13.7 116.29-15.23 115.29-16.75 115.29-19.25L115.29-19.25Q115.29-22.85 117.64-24.88 119.99-26.9 123.84-26.9L123.84-26.9Q127.49-26.9 129.66-24.88 131.84-22.85 131.84-19.7L131.84-19.7 131.79-18.7 126.94-18.7 126.94-19.05Q126.94-20.75 126.11-21.83 125.29-22.9 123.54-22.9L123.54-22.9Q121.74-22.9 120.91-21.9 120.09-20.9 120.09-19.6L120.09-19.6Q120.09-18 121.26-17.23 122.44-16.45 124.89-15.7L124.89-15.7Q127.29-14.95 128.76-14.2 130.24-13.45 131.31-11.88 132.39-10.3 132.39-7.65L132.39-7.65Q132.39-3.45 129.99-1.43 127.59 0.6 123.54 0.6L123.54 0.6ZM159.23 0.6Q154.13 0.6 150.88-1.98 147.63-4.55 147.63-9.8L147.63-9.8 147.68-10.85 152.88-10.85 152.83-9.85Q152.83-7 154.58-5.45 156.33-3.9 159.23-3.9L159.23-3.9Q162.43-3.9 164.11-5.28 165.78-6.65 165.78-9.1L165.78-9.1Q165.78-10.9 164.81-12.05 163.83-13.2 162.36-13.88 160.88-14.55 158.33-15.35L158.33-15.35Q155.13-16.4 153.13-17.4 151.13-18.4 149.73-20.38 148.33-22.35 148.33-25.55L148.33-25.55Q148.33-30.1 151.46-32.5 154.58-34.9 159.38-34.9L159.38-34.9Q164.18-34.9 167.23-32.45 170.28-30 170.28-25.1L170.28-25.1 170.28-24.5 165.08-24.5 165.08-25.15Q165.08-27.6 163.51-29 161.93-30.4 159.43-30.4L159.43-30.4Q156.78-30.4 155.18-29.25 153.58-28.1 153.58-25.95L153.58-25.95Q153.58-24.35 154.53-23.28 155.48-22.2 156.93-21.55 158.38-20.9 160.83-20.15L160.83-20.15Q164.08-19.1 166.11-18.1 168.13-17.1 169.58-15.15 171.03-13.2 171.03-10.05L171.03-10.05Q171.03-4.5 167.86-1.95 164.68 0.6 159.23 0.6L159.23 0.6ZM184.83 0.6Q179.98 0.6 177.53-2.78 175.08-6.15 175.08-13.15L175.08-13.15Q175.08-20.15 177.53-23.53 179.98-26.9 184.83-26.9L184.83-26.9Q189.73-26.9 192.16-23.53 194.58-20.15 194.58-13.15L194.58-13.15Q194.58-6.15 192.16-2.78 189.73 0.6 184.83 0.6L184.83 0.6ZM184.83-3.5Q189.68-3.5 189.68-12.2L189.68-12.2 189.68-14.1Q189.68-22.8 184.83-22.8L184.83-22.8Q182.38-22.8 181.21-20.63 180.03-18.45 180.03-14.1L180.03-14.1 180.03-12.2Q180.03-7.85 181.21-5.68 182.38-3.5 184.83-3.5L184.83-3.5ZM199.43 0L199.43-22.2 197.03-22.2 197.03-26.3 199.43-26.3 199.43-30.2Q199.43-32.9 200.73-34.73 202.03-36.55 204.98-36.55L204.98-36.55Q205.88-36.55 206.9-36.38 207.93-36.2 208.68-35.95L208.68-35.95 208.68-32.6 206.43-32.6Q204.13-32.6 204.13-30.25L204.13-30.25 204.13-26.3 208.68-26.3 208.68-22.2 204.13-22.2 204.13 0 199.43 0ZM216.83 0.55Q214.08 0.55 212.88-1.3 211.68-3.15 211.68-5.85L211.68-5.85 211.68-22.2 209.28-22.2 209.28-26.3 211.68-26.3 212.58-33.65 216.38-33.65 216.38-26.3 220.03-26.3 220.03-22.2 216.38-22.2 216.38-5.8Q216.38-4.7 216.95-4.1 217.53-3.5 218.63-3.5L218.63-3.5 220.03-3.5 220.03-0.15Q219.48 0.15 218.55 0.35 217.63 0.55 216.83 0.55L216.83 0.55Z" opacity="1" transform="matrix(1,0,0,1,0,0)" fill="#ffffff" class="wordmark-text-0" data-fill-palette-color="quaternary" id="text-0"></path></svg></g></svg></g><g transform="matrix(1,0,0,1,0,44.93129786893195)"><svg viewBox="0 0 213.1584412271571 11.86868749732676" height="11.86868749732676" width="213.1584412271571"><g transform="matrix(1,0,0,1,0,0)"><svg width="213.1584412271571" viewBox="2.25 -33.5 802.7000122070312 44.70000076293945" height="11.86868749732676" data-palette-color="#ffffff"><path d="M2.25-32.5L2.25-33 9.35-33 9.35-32.5 9.1-32.5Q8.7-32.5 8.4-32.23 8.1-31.95 7.88-31.55 7.65-31.15 7.55-30.7 7.45-30.25 7.45-29.9L7.45-29.9 7.45-10.15Q7.45-8.2 7.85-6.55 8.25-4.9 9.2-3.7 10.15-2.5 11.7-1.83 13.25-1.15 15.5-1.15L15.5-1.15Q18-1.15 19.5-1.95 21-2.75 21.8-4.03 22.6-5.3 22.85-6.9 23.1-8.5 23.1-10.05L23.1-10.05 23.1-29.9Q23.1-30.25 23-30.7 22.9-31.15 22.68-31.55 22.45-31.95 22.15-32.23 21.85-32.5 21.5-32.5L21.5-32.5 21.25-32.5 21.25-33 26.7-33 26.7-32.5 26.45-32.5Q26.05-32.5 25.78-32.23 25.5-31.95 25.28-31.55 25.05-31.15 24.95-30.7 24.85-30.25 24.85-29.9L24.85-29.9 24.85-10.2Q24.85-6.95 24.05-4.88 23.25-2.8 21.85-1.6 20.45-0.4 18.57 0.05 16.7 0.5 14.6 0.5L14.6 0.5Q12.35 0.5 10.43 0.03 8.5-0.45 7.1-1.65 5.7-2.85 4.9-4.93 4.1-7 4.1-10.15L4.1-10.15 4.1-29.9Q4.1-30.25 4-30.7 3.9-31.15 3.68-31.55 3.45-31.95 3.15-32.23 2.85-32.5 2.5-32.5L2.5-32.5 2.25-32.5ZM51.55-12.9L51.55-3.25Q51.55-2.85 51.65-2.38 51.75-1.9 51.97-1.5 52.2-1.1 52.47-0.8 52.75-0.5 53.15-0.5L53.15-0.5 53.15 0 46.7 0 46.7-0.5Q47.05-0.5 47.35-0.8 47.65-1.1 47.87-1.5 48.1-1.9 48.2-2.38 48.3-2.85 48.3-3.25L48.3-3.25 48.3-12.55Q48.3-14.35 47.8-15.7 47.3-17.05 46.45-17.95 45.6-18.85 44.52-19.28 43.45-19.7 42.35-19.7L42.35-19.7Q41.25-19.7 40.17-19.25 39.1-18.8 38.27-18.07 37.45-17.35 36.92-16.38 36.4-15.4 36.4-14.35L36.4-14.35 36.4-3.25Q36.4-2.85 36.5-2.38 36.6-1.9 36.82-1.5 37.05-1.1 37.32-0.8 37.6-0.5 38-0.5L38-0.5 38 0 31.5 0 31.5-0.5Q31.85-0.5 32.15-0.8 32.45-1.1 32.67-1.5 32.9-1.9 33-2.38 33.1-2.85 33.1-3.25L33.1-3.25 33.1-17.05Q33.1-17.9 32.85-18.68 32.6-19.45 31.4-19.5L31.4-19.5 31.4-19.95 36.4-21.55 36.4-18.8Q36.75-19.2 37.3-19.68 37.85-20.15 38.62-20.58 39.4-21 40.42-21.28 41.45-21.55 42.85-21.55L42.85-21.55Q45.2-21.55 46.85-20.75 48.5-19.95 49.55-18.68 50.6-17.4 51.07-15.88 51.55-14.35 51.55-12.9L51.55-12.9ZM64.8 0L58.25 0 58.25-0.5Q58.65-0.5 58.95-0.8 59.25-1.1 59.47-1.5 59.7-1.9 59.8-2.38 59.9-2.85 59.9-3.25L59.9-3.25 59.9-28.85Q59.9-29.7 59.65-30.45 59.4-31.2 58.15-31.25L58.15-31.25 58.15-31.75 63.2-33.3 63.2-3.25Q63.2-2.85 63.3-2.38 63.4-1.9 63.62-1.5 63.84-1.1 64.12-0.8 64.39-0.5 64.8-0.5L64.8-0.5 64.8 0ZM89.69-10.1L72.34-10.1Q72.54-8.35 73.19-6.78 73.84-5.2 74.92-4 75.99-2.8 77.54-2.08 79.09-1.35 81.14-1.35L81.14-1.35Q82.24-1.35 83.47-1.68 84.69-2 85.74-2.6 86.79-3.2 87.62-4.08 88.44-4.95 88.74-6.05L88.74-6.05 89.19-6.05 89.19-2.3Q88.89-2.3 88.52-2.1 88.14-1.9 87.64-1.6L87.64-1.6Q86.64-1 84.94-0.33 83.24 0.35 80.44 0.35L80.44 0.35Q78.19 0.35 76.17-0.3 74.14-0.95 72.59-2.3 71.04-3.65 70.12-5.75 69.19-7.85 69.19-10.75L69.19-10.75Q69.19-12.6 69.82-14.5 70.44-16.4 71.72-17.93 72.99-19.45 74.99-20.4 76.99-21.35 79.79-21.35L79.79-21.35Q82.29-21.35 84.17-20.5 86.04-19.65 87.27-18.15 88.49-16.65 89.09-14.6 89.69-12.55 89.69-10.1L89.69-10.1ZM79.59-19.7L79.59-19.7Q77.84-19.7 76.57-19 75.29-18.3 74.39-17.2 73.49-16.1 72.99-14.7 72.49-13.3 72.34-11.9L72.34-11.9 86.59-11.9Q86.54-13.35 86.07-14.75 85.59-16.15 84.74-17.25 83.89-18.35 82.59-19.03 81.29-19.7 79.59-19.7ZM110.54 0L105.69 0 105.69-2.55 105.44-2.3Q104.19-1.05 102.57-0.35 100.94 0.35 98.64 0.35L98.64 0.35Q96.89 0.35 95.64-0.05 94.39-0.45 93.59-1.18 92.79-1.9 92.42-2.85 92.04-3.8 92.04-4.85L92.04-4.85Q92.04-6.55 92.97-7.85 93.89-9.15 95.64-10.15 97.39-11.15 99.92-11.98 102.44-12.8 105.69-13.6L105.69-13.6Q105.59-15.55 104.89-16.75 104.19-17.95 103.24-18.63 102.29-19.3 101.24-19.53 100.19-19.75 99.44-19.75L99.44-19.75Q98.14-19.75 97.17-19.35 96.19-18.95 95.47-18.32 94.74-17.7 94.24-16.98 93.74-16.25 93.44-15.6L93.44-15.6 92.99-15.6 92.99-19.25Q93.39-19.3 93.74-19.5 94.09-19.7 94.59-19.9L94.59-19.9Q95.34-20.2 96.64-20.78 97.94-21.35 100.29-21.35L100.29-21.35Q103.04-21.35 104.74-20.65 106.44-19.95 107.37-18.8 108.29-17.65 108.59-16.18 108.89-14.7 108.89-13.15L108.89-13.15 108.89-3.25Q108.89-2.25 109.34-1.38 109.79-0.5 110.54-0.5L110.54-0.5 110.54 0ZM105.14-4.15L105.69-4.75 105.69-11.9 105.19-11.8Q103.99-11.5 102.27-11 100.54-10.5 98.99-9.7 97.44-8.9 96.34-7.8 95.24-6.7 95.24-5.25L95.24-5.25Q95.24-3.65 96.54-2.6 97.84-1.55 99.94-1.55L99.94-1.55Q101.59-1.55 102.84-2.27 104.09-3 105.14-4.15L105.14-4.15ZM131.59-5.7L131.59-5.7Q131.59-4.4 130.94-3.3 130.29-2.2 129.16-1.38 128.04-0.55 126.54-0.08 125.04 0.4 123.29 0.4L123.29 0.4Q121.14 0.4 119.79-0.18 118.44-0.75 117.49-1.35L117.49-1.35Q116.84-1.75 116.29-2.02 115.74-2.3 115.09-2.3L115.09-2.3 115.09-6.1 115.59-6.1Q115.74-5.4 116.46-4.58 117.19-3.75 118.21-3.05 119.24-2.35 120.46-1.88 121.69-1.4 122.94-1.4L122.94-1.4Q123.84-1.4 124.79-1.6 125.74-1.8 126.51-2.25 127.29-2.7 127.81-3.38 128.34-4.05 128.34-5L128.34-5Q128.34-5.95 127.79-6.65 127.24-7.35 126.39-7.88 125.54-8.4 124.44-8.8 123.34-9.2 122.24-9.55L122.24-9.55Q120.94-9.95 119.61-10.45 118.29-10.95 117.24-11.63 116.19-12.3 115.54-13.28 114.89-14.25 114.89-15.6L114.89-15.6Q114.89-16.75 115.31-17.8 115.74-18.85 116.71-19.63 117.69-20.4 119.24-20.88 120.79-21.35 122.99-21.35L122.99-21.35Q124.94-21.35 126.01-21.03 127.09-20.7 127.79-20.35L127.79-20.35Q128.24-20.1 128.69-19.98 129.14-19.85 129.69-19.85L129.69-19.85 129.69-16.35 129.29-16.35Q128.39-18 126.54-18.85 124.69-19.7 122.74-19.7L122.74-19.7Q121.49-19.7 120.59-19.38 119.69-19.05 119.11-18.57 118.54-18.1 118.26-17.5 117.99-16.9 117.99-16.3L117.99-16.3Q117.99-15.45 118.46-14.85 118.94-14.25 119.76-13.8 120.59-13.35 121.61-12.95 122.64-12.55 123.79-12.2L123.79-12.2Q125.19-11.75 126.59-11.23 127.99-10.7 129.09-9.95 130.19-9.2 130.89-8.18 131.59-7.15 131.59-5.7ZM155.99-12.9L155.99-3.25Q155.99-2.85 156.09-2.38 156.19-1.9 156.41-1.5 156.64-1.1 156.91-0.8 157.19-0.5 157.59-0.5L157.59-0.5 157.59 0 151.14 0 151.14-0.5Q151.49-0.5 151.79-0.8 152.09-1.1 152.31-1.5 152.54-1.9 152.64-2.38 152.74-2.85 152.74-3.25L152.74-3.25 152.74-12.55Q152.74-14.35 152.24-15.7 151.74-17.05 150.89-17.95 150.04-18.85 148.96-19.28 147.89-19.7 146.79-19.7L146.79-19.7Q145.69-19.7 144.61-19.28 143.54-18.85 142.71-18.1 141.89-17.35 141.36-16.28 140.84-15.2 140.84-13.9L140.84-13.9 140.84-3.25Q140.84-2.85 140.94-2.38 141.04-1.9 141.26-1.5 141.49-1.1 141.76-0.8 142.04-0.5 142.44-0.5L142.44-0.5 142.44 0 135.94 0 135.94-0.5Q136.29-0.5 136.59-0.8 136.89-1.1 137.11-1.5 137.34-1.9 137.44-2.38 137.54-2.85 137.54-3.25L137.54-3.25 137.54-28.8Q137.54-29.65 137.29-30.4 137.04-31.15 135.84-31.2L135.84-31.2 135.84-31.7 140.84-33.25 140.84-18.8Q141.19-19.2 141.74-19.68 142.29-20.15 143.06-20.58 143.84-21 144.86-21.28 145.89-21.55 147.29-21.55L147.29-21.55Q149.64-21.55 151.29-20.75 152.94-19.95 153.99-18.68 155.04-17.4 155.51-15.88 155.99-14.35 155.99-12.9L155.99-12.9ZM175.43 0L175.43-0.5 175.68-0.5Q176.03-0.5 176.33-0.8 176.63-1.1 176.86-1.5 177.08-1.9 177.18-2.38 177.28-2.85 177.28-3.25L177.28-3.25 177.28-29.9Q177.28-30.25 177.18-30.7 177.08-31.15 176.88-31.55 176.68-31.95 176.38-32.23 176.08-32.5 175.68-32.5L175.68-32.5 175.43-32.5 175.43-33 185.08-33Q189.03-33 192.18-31.63 195.33-30.25 197.51-27.93 199.68-25.6 200.83-22.6 201.98-19.6 201.98-16.35L201.98-16.35Q201.98-13.3 200.88-10.38 199.78-7.45 197.58-5.15 195.38-2.85 192.08-1.43 188.78 0 184.43 0L184.43 0 175.43 0ZM198.58-15.6L198.58-15.6Q198.58-18.8 197.43-21.65 196.28-24.5 194.21-26.63 192.13-28.75 189.31-30 186.48-31.25 183.18-31.25L183.18-31.25 180.63-31.25 180.63-1.75 183.28-1.75Q185.98-1.75 188.71-2.58 191.43-3.4 193.63-5.13 195.83-6.85 197.21-9.45 198.58-12.05 198.58-15.6ZM213.48 0L206.98 0 206.98-0.5Q207.38-0.5 207.68-0.8 207.98-1.1 208.18-1.5 208.38-1.9 208.48-2.38 208.58-2.85 208.58-3.25L208.58-3.25 208.58-17.1Q208.58-17.95 208.33-18.73 208.08-19.5 206.88-19.55L206.88-19.55 206.88-20 211.88-21.6 211.88-3.25Q211.88-2.85 211.98-2.38 212.08-1.9 212.28-1.5 212.48-1.1 212.78-0.8 213.08-0.5 213.48-0.5L213.48-0.5 213.48 0ZM207.23-26.4L207.23-26.4Q207.23-27.4 207.9-28.1 208.58-28.8 209.58-28.8L209.58-28.8Q210.58-28.8 211.28-28.1 211.98-27.4 211.98-26.4L211.98-26.4Q211.98-25.4 211.28-24.75 210.58-24.1 209.58-24.1L209.58-24.1Q208.58-24.1 207.9-24.75 207.23-25.4 207.23-26.4ZM229.23 9.3L229.23 9.3Q230.73 9.3 232.08 9.03 233.43 8.75 234.45 8.25 235.48 7.75 236.08 7.05 236.68 6.35 236.68 5.55L236.68 5.55Q236.68 4.7 235.85 4.1 235.03 3.5 233.63 3.05 232.23 2.6 230.38 2.27 228.53 1.95 226.53 1.6L226.53 1.6 223.98 1.15Q222.83 2.05 222.38 3.05 221.93 4.05 221.93 4.8L221.93 4.8Q221.93 5.85 222.5 6.68 223.08 7.5 224.05 8.1 225.03 8.7 226.35 9 227.68 9.3 229.23 9.3ZM225.73-1.7L231.98-0.7Q233.98-0.4 235.3 0.1 236.63 0.6 237.43 1.28 238.23 1.95 238.53 2.78 238.83 3.6 238.83 4.55L238.83 4.55Q238.83 6.25 237.9 7.5 236.98 8.75 235.5 9.58 234.03 10.4 232.15 10.8 230.28 11.2 228.33 11.2L228.33 11.2Q226.43 11.2 224.68 10.83 222.93 10.45 221.58 9.7 220.23 8.95 219.43 7.83 218.63 6.7 218.63 5.25L218.63 5.25Q218.63 3.95 219.43 2.78 220.23 1.6 222.03 0.45L222.03 0.45Q220.28-0.45 219.35-1.98 218.43-3.5 218.43-5.1L218.43-5.1Q218.43-6.05 218.88-6.98 219.33-7.9 220.33-8.7L220.33-8.7Q219.48-9.7 219.13-10.7 218.78-11.7 218.78-12.85L218.78-12.85Q218.78-14.65 219.53-16.2 220.28-17.75 221.58-18.9 222.88-20.05 224.63-20.7 226.38-21.35 228.38-21.35L228.38-21.35Q230.48-21.35 232.38-20.63 234.28-19.9 235.58-18.75L235.58-18.75 239.18-18.75 239.18-16.95 236.88-16.95Q237.23-16.2 237.58-15.18 237.93-14.15 237.93-13.05L237.93-13.05Q237.93-11.45 237.18-10.03 236.43-8.6 235.1-7.53 233.78-6.45 232-5.83 230.23-5.2 228.23-5.2L228.23-5.2Q226.38-5.2 224.63-5.75 222.88-6.3 221.53-7.35L221.53-7.35Q220.98-7 220.78-6.48 220.58-5.95 220.58-5.4L220.58-5.4Q220.58-3.8 222.03-2.93 223.48-2.05 225.73-1.7L225.73-1.7ZM227.78-19.6L227.78-19.6Q226.58-19.6 225.53-19.18 224.48-18.75 223.68-18 222.88-17.25 222.4-16.18 221.93-15.1 221.93-13.75L221.93-13.75Q221.93-12.1 222.6-10.8 223.28-9.5 224.33-8.65 225.38-7.8 226.65-7.35 227.93-6.9 229.08-6.9L229.08-6.9Q230.33-6.9 231.35-7.38 232.38-7.85 233.13-8.68 233.88-9.5 234.28-10.6 234.68-11.7 234.68-12.9L234.68-12.9Q234.68-14.4 234.08-15.65 233.48-16.9 232.5-17.78 231.53-18.65 230.28-19.13 229.03-19.6 227.78-19.6ZM250.77 0L244.27 0 244.27-0.5Q244.67-0.5 244.97-0.8 245.27-1.1 245.47-1.5 245.67-1.9 245.77-2.38 245.87-2.85 245.87-3.25L245.87-3.25 245.87-17.1Q245.87-17.95 245.62-18.73 245.37-19.5 244.17-19.55L244.17-19.55 244.17-20 249.17-21.6 249.17-3.25Q249.17-2.85 249.27-2.38 249.37-1.9 249.57-1.5 249.77-1.1 250.07-0.8 250.37-0.5 250.77-0.5L250.77-0.5 250.77 0ZM244.52-26.4L244.52-26.4Q244.52-27.4 245.2-28.1 245.87-28.8 246.87-28.8L246.87-28.8Q247.87-28.8 248.57-28.1 249.27-27.4 249.27-26.4L249.27-26.4Q249.27-25.4 248.57-24.75 247.87-24.1 246.87-24.1L246.87-24.1Q245.87-24.1 245.2-24.75 244.52-25.4 244.52-26.4ZM266.62-19.3L261.02-19.3 261.02-7.25Q261.02-5.95 261.07-4.9 261.12-3.85 261.32-3.15 261.52-2.45 261.92-2.08 262.32-1.7 263.02-1.7L263.02-1.7Q264.07-1.7 265-2.7 265.92-3.7 266.17-5.1L266.17-5.1 266.62-5.1 266.62-1.45Q266.17-1.45 265.87-1.15L265.87-1.15Q265.47-0.8 264.75-0.4 264.02 0 262.57 0L262.57 0Q260.77 0 259.77-0.7 258.77-1.4 258.32-2.55 257.87-3.7 257.8-5.1 257.72-6.5 257.72-7.95L257.72-7.95 257.72-19.3 254.92-19.3 254.92-21 257.72-21 257.72-25.45Q257.72-26.3 257.5-27.03 257.27-27.75 256.02-27.8L256.02-27.8 256.02-28.3 261.02-29.9 261.02-21 266.62-21 266.62-19.3ZM288.42 0L283.57 0 283.57-2.55 283.32-2.3Q282.07-1.05 280.44-0.35 278.82 0.35 276.52 0.35L276.52 0.35Q274.77 0.35 273.52-0.05 272.27-0.45 271.47-1.18 270.67-1.9 270.29-2.85 269.92-3.8 269.92-4.85L269.92-4.85Q269.92-6.55 270.84-7.85 271.77-9.15 273.52-10.15 275.27-11.15 277.79-11.98 280.32-12.8 283.57-13.6L283.57-13.6Q283.47-15.55 282.77-16.75 282.07-17.95 281.12-18.63 280.17-19.3 279.12-19.53 278.07-19.75 277.32-19.75L277.32-19.75Q276.02-19.75 275.04-19.35 274.07-18.95 273.34-18.32 272.62-17.7 272.12-16.98 271.62-16.25 271.32-15.6L271.32-15.6 270.87-15.6 270.87-19.25Q271.27-19.3 271.62-19.5 271.97-19.7 272.47-19.9L272.47-19.9Q273.22-20.2 274.52-20.78 275.82-21.35 278.17-21.35L278.17-21.35Q280.92-21.35 282.62-20.65 284.32-19.95 285.24-18.8 286.17-17.65 286.47-16.18 286.77-14.7 286.77-13.15L286.77-13.15 286.77-3.25Q286.77-2.25 287.22-1.38 287.67-0.5 288.42-0.5L288.42-0.5 288.42 0ZM283.02-4.15L283.57-4.75 283.57-11.9 283.07-11.8Q281.87-11.5 280.14-11 278.42-10.5 276.87-9.7 275.32-8.9 274.22-7.8 273.12-6.7 273.12-5.25L273.12-5.25Q273.12-3.65 274.42-2.6 275.72-1.55 277.82-1.55L277.82-1.55Q279.47-1.55 280.72-2.27 281.97-3 283.02-4.15L283.02-4.15ZM299.97 0L293.42 0 293.42-0.5Q293.82-0.5 294.12-0.8 294.42-1.1 294.64-1.5 294.87-1.9 294.97-2.38 295.07-2.85 295.07-3.25L295.07-3.25 295.07-28.85Q295.07-29.7 294.82-30.45 294.57-31.2 293.32-31.25L293.32-31.25 293.32-31.75 298.37-33.3 298.37-3.25Q298.37-2.85 298.47-2.38 298.57-1.9 298.79-1.5 299.02-1.1 299.29-0.8 299.57-0.5 299.97-0.5L299.97-0.5 299.97 0ZM339.26-16.9L339.26-17.4 346.41-17.4 346.41-16.9 346.16-16.9Q345.76-16.9 345.46-16.63 345.16-16.35 344.96-15.95 344.76-15.55 344.64-15.1 344.51-14.65 344.51-14.3L344.51-14.3 344.51-0.9Q343.61-0.55 342.46-0.3 341.31-0.05 340.06 0.13 338.81 0.3 337.51 0.4 336.21 0.5 335.11 0.5L335.11 0.5Q330.61 0.5 327.26-1 323.91-2.5 321.71-4.93 319.51-7.35 318.44-10.4 317.36-13.45 317.36-16.55L317.36-16.55Q317.36-19.65 318.44-22.7 319.51-25.75 321.74-28.15 323.96-30.55 327.34-32.02 330.71-33.5 335.36-33.5L335.36-33.5Q337.11-33.5 338.61-33.2 340.11-32.9 341.26-32.65L341.26-32.65Q341.91-32.5 342.39-32.38 342.86-32.25 343.21-32.25L343.21-32.25 343.66-32.25 343.66-26.95 343.16-26.95Q342.86-28.5 341.99-29.45 341.11-30.4 339.96-30.9 338.81-31.4 337.54-31.58 336.26-31.75 335.16-31.75L335.16-31.75Q331.41-31.75 328.66-30.43 325.91-29.1 324.16-27 322.41-24.9 321.56-22.28 320.71-19.65 320.71-17.05L320.71-17.05Q320.71-14.15 321.81-11.33 322.91-8.5 324.91-6.28 326.91-4.05 329.74-2.68 332.56-1.3 336.01-1.3L336.01-1.3Q336.96-1.3 338.36-1.53 339.76-1.75 341.16-2.55L341.16-2.55 341.16-14.3Q341.16-14.65 341.06-15.1 340.96-15.55 340.74-15.95 340.51-16.35 340.21-16.63 339.91-16.9 339.51-16.9L339.51-16.9 339.26-16.9ZM370.71-10.1L353.36-10.1Q353.56-8.35 354.21-6.78 354.86-5.2 355.93-4 357.01-2.8 358.56-2.08 360.11-1.35 362.16-1.35L362.16-1.35Q363.26-1.35 364.48-1.68 365.71-2 366.76-2.6 367.81-3.2 368.63-4.08 369.46-4.95 369.76-6.05L369.76-6.05 370.21-6.05 370.21-2.3Q369.91-2.3 369.53-2.1 369.16-1.9 368.66-1.6L368.66-1.6Q367.66-1 365.96-0.33 364.26 0.35 361.46 0.35L361.46 0.35Q359.21 0.35 357.18-0.3 355.16-0.95 353.61-2.3 352.06-3.65 351.13-5.75 350.21-7.85 350.21-10.75L350.21-10.75Q350.21-12.6 350.83-14.5 351.46-16.4 352.73-17.93 354.01-19.45 356.01-20.4 358.01-21.35 360.81-21.35L360.81-21.35Q363.31-21.35 365.18-20.5 367.06-19.65 368.28-18.15 369.51-16.65 370.11-14.6 370.71-12.55 370.71-10.1L370.71-10.1ZM360.61-19.7L360.61-19.7Q358.86-19.7 357.58-19 356.31-18.3 355.41-17.2 354.51-16.1 354.01-14.7 353.51-13.3 353.36-11.9L353.36-11.9 367.61-11.9Q367.56-13.35 367.08-14.75 366.61-16.15 365.76-17.25 364.91-18.35 363.61-19.03 362.31-19.7 360.61-19.7ZM394.96-12.9L394.96-3.25Q394.96-2.85 395.06-2.38 395.16-1.9 395.38-1.5 395.61-1.1 395.88-0.8 396.16-0.5 396.56-0.5L396.56-0.5 396.56 0 390.11 0 390.11-0.5Q390.46-0.5 390.76-0.8 391.06-1.1 391.28-1.5 391.51-1.9 391.61-2.38 391.71-2.85 391.71-3.25L391.71-3.25 391.71-12.55Q391.71-14.35 391.21-15.7 390.71-17.05 389.86-17.95 389.01-18.85 387.93-19.28 386.86-19.7 385.76-19.7L385.76-19.7Q384.66-19.7 383.58-19.25 382.51-18.8 381.68-18.07 380.86-17.35 380.33-16.38 379.81-15.4 379.81-14.35L379.81-14.35 379.81-3.25Q379.81-2.85 379.91-2.38 380.01-1.9 380.23-1.5 380.46-1.1 380.73-0.8 381.01-0.5 381.41-0.5L381.41-0.5 381.41 0 374.91 0 374.91-0.5Q375.26-0.5 375.56-0.8 375.86-1.1 376.08-1.5 376.31-1.9 376.41-2.38 376.51-2.85 376.51-3.25L376.51-3.25 376.51-17.05Q376.51-17.9 376.26-18.68 376.01-19.45 374.81-19.5L374.81-19.5 374.81-19.95 379.81-21.55 379.81-18.8Q380.16-19.2 380.71-19.68 381.26-20.15 382.03-20.58 382.81-21 383.83-21.28 384.86-21.55 386.26-21.55L386.26-21.55Q388.61-21.55 390.26-20.75 391.91-19.95 392.96-18.68 394.01-17.4 394.48-15.88 394.96-14.35 394.96-12.9L394.96-12.9ZM408.65 0L402.15 0 402.15-0.5Q402.55-0.5 402.85-0.8 403.15-1.1 403.35-1.5 403.55-1.9 403.65-2.38 403.75-2.85 403.75-3.25L403.75-3.25 403.75-17.1Q403.75-17.95 403.5-18.73 403.25-19.5 402.05-19.55L402.05-19.55 402.05-20 407.05-21.6 407.05-3.25Q407.05-2.85 407.15-2.38 407.25-1.9 407.45-1.5 407.65-1.1 407.95-0.8 408.25-0.5 408.65-0.5L408.65-0.5 408.65 0ZM402.4-26.4L402.4-26.4Q402.4-27.4 403.08-28.1 403.75-28.8 404.75-28.8L404.75-28.8Q405.75-28.8 406.45-28.1 407.15-27.4 407.15-26.4L407.15-26.4Q407.15-25.4 406.45-24.75 405.75-24.1 404.75-24.1L404.75-24.1Q403.75-24.1 403.08-24.75 402.4-25.4 402.4-26.4ZM433.8-21.55L433.8-3.25Q433.8-2.9 433.9-2.43 434-1.95 434.18-1.53 434.35-1.1 434.65-0.8 434.95-0.5 435.35-0.5L435.35-0.5 435.35 0 430.5 0 430.5-2.75Q429.75-1.65 428.3-0.6 426.85 0.45 424.55 0.45L424.55 0.45Q421.65 0.45 419.95-0.55 418.25-1.55 417.35-3.1 416.45-4.65 416.2-6.48 415.95-8.3 415.95-9.9L415.95-9.9 415.95-17.05Q415.95-17.5 415.93-17.93 415.9-18.35 415.73-18.7 415.55-19.05 415.2-19.28 414.85-19.5 414.2-19.5L414.2-19.5 414.2-19.95 419.25-21.55 419.25-8.8Q419.25-5 420.9-3.2 422.55-1.4 424.95-1.4L424.95-1.4Q426.25-1.4 427.28-1.98 428.3-2.55 429.03-3.35 429.75-4.15 430.13-5 430.5-5.85 430.5-6.4L430.5-6.4 430.5-17.05Q430.5-17.5 430.48-17.93 430.45-18.35 430.28-18.7 430.1-19.05 429.75-19.28 429.4-19.5 428.75-19.5L428.75-19.5 428.75-19.95 433.8-21.55ZM456.45-5.7L456.45-5.7Q456.45-4.4 455.8-3.3 455.15-2.2 454.02-1.38 452.9-0.55 451.4-0.08 449.9 0.4 448.15 0.4L448.15 0.4Q446 0.4 444.65-0.18 443.3-0.75 442.35-1.35L442.35-1.35Q441.7-1.75 441.15-2.02 440.6-2.3 439.95-2.3L439.95-2.3 439.95-6.1 440.45-6.1Q440.6-5.4 441.32-4.58 442.05-3.75 443.07-3.05 444.1-2.35 445.32-1.88 446.55-1.4 447.8-1.4L447.8-1.4Q448.7-1.4 449.65-1.6 450.6-1.8 451.37-2.25 452.15-2.7 452.67-3.38 453.2-4.05 453.2-5L453.2-5Q453.2-5.95 452.65-6.65 452.1-7.35 451.25-7.88 450.4-8.4 449.3-8.8 448.2-9.2 447.1-9.55L447.1-9.55Q445.8-9.95 444.47-10.45 443.15-10.95 442.1-11.63 441.05-12.3 440.4-13.28 439.75-14.25 439.75-15.6L439.75-15.6Q439.75-16.75 440.17-17.8 440.6-18.85 441.57-19.63 442.55-20.4 444.1-20.88 445.65-21.35 447.85-21.35L447.85-21.35Q449.8-21.35 450.87-21.03 451.95-20.7 452.65-20.35L452.65-20.35Q453.1-20.1 453.55-19.98 454-19.85 454.55-19.85L454.55-19.85 454.55-16.35 454.15-16.35Q453.25-18 451.4-18.85 449.55-19.7 447.6-19.7L447.6-19.7Q446.35-19.7 445.45-19.38 444.55-19.05 443.97-18.57 443.4-18.1 443.12-17.5 442.85-16.9 442.85-16.3L442.85-16.3Q442.85-15.45 443.32-14.85 443.8-14.25 444.62-13.8 445.45-13.35 446.47-12.95 447.5-12.55 448.65-12.2L448.65-12.2Q450.05-11.75 451.45-11.23 452.85-10.7 453.95-9.95 455.05-9.2 455.75-8.18 456.45-7.15 456.45-5.7ZM504.39-21L504.39-20.5Q503.49-20.5 503.02-20 502.54-19.5 502.14-18.5L502.14-18.5 494.59 0.4 488.14-15.4 481.74 0.35 474.34-17.95Q473.99-18.8 473.47-19.65 472.94-20.5 472.09-20.5L472.09-20.5 472.09-21 478.94-21 478.94-20.5Q478.59-20.5 478.07-20.18 477.54-19.85 477.54-19.1L477.54-19.1Q477.54-19 477.62-18.68 477.69-18.35 477.79-18.1L477.79-18.1 482.69-6 488.99-21.55 495.34-6 500.29-18.3Q500.54-19.05 500.54-19.35L500.54-19.35Q500.54-19.75 500.29-20.1 500.04-20.45 499.44-20.5L499.44-20.5 499.44-21 504.39-21ZM514.64 0L508.14 0 508.14-0.5Q508.54-0.5 508.84-0.8 509.14-1.1 509.34-1.5 509.54-1.9 509.64-2.38 509.74-2.85 509.74-3.25L509.74-3.25 509.74-17.1Q509.74-17.95 509.49-18.73 509.24-19.5 508.04-19.55L508.04-19.55 508.04-20 513.04-21.6 513.04-3.25Q513.04-2.85 513.14-2.38 513.24-1.9 513.44-1.5 513.64-1.1 513.94-0.8 514.24-0.5 514.64-0.5L514.64-0.5 514.64 0ZM508.39-26.4L508.39-26.4Q508.39-27.4 509.07-28.1 509.74-28.8 510.74-28.8L510.74-28.8Q511.74-28.8 512.44-28.1 513.14-27.4 513.14-26.4L513.14-26.4Q513.14-25.4 512.44-24.75 511.74-24.1 510.74-24.1L510.74-24.1Q509.74-24.1 509.07-24.75 508.39-25.4 508.39-26.4ZM530.49-19.3L524.89-19.3 524.89-7.25Q524.89-5.95 524.94-4.9 524.99-3.85 525.19-3.15 525.39-2.45 525.79-2.08 526.19-1.7 526.89-1.7L526.89-1.7Q527.94-1.7 528.86-2.7 529.79-3.7 530.04-5.1L530.04-5.1 530.49-5.1 530.49-1.45Q530.04-1.45 529.74-1.15L529.74-1.15Q529.34-0.8 528.61-0.4 527.89 0 526.44 0L526.44 0Q524.64 0 523.64-0.7 522.64-1.4 522.19-2.55 521.74-3.7 521.66-5.1 521.59-6.5 521.59-7.95L521.59-7.95 521.59-19.3 518.79-19.3 518.79-21 521.59-21 521.59-25.45Q521.59-26.3 521.36-27.03 521.14-27.75 519.89-27.8L519.89-27.8 519.89-28.3 524.89-29.9 524.89-21 530.49-21 530.49-19.3ZM554.34-12.9L554.34-3.25Q554.34-2.85 554.44-2.38 554.53-1.9 554.76-1.5 554.99-1.1 555.26-0.8 555.53-0.5 555.94-0.5L555.94-0.5 555.94 0 549.49 0 549.49-0.5Q549.84-0.5 550.13-0.8 550.44-1.1 550.66-1.5 550.88-1.9 550.99-2.38 551.09-2.85 551.09-3.25L551.09-3.25 551.09-12.55Q551.09-14.35 550.59-15.7 550.09-17.05 549.24-17.95 548.38-18.85 547.31-19.28 546.24-19.7 545.13-19.7L545.13-19.7Q544.03-19.7 542.96-19.28 541.88-18.85 541.06-18.1 540.24-17.35 539.71-16.28 539.19-15.2 539.19-13.9L539.19-13.9 539.19-3.25Q539.19-2.85 539.28-2.38 539.38-1.9 539.61-1.5 539.84-1.1 540.11-0.8 540.38-0.5 540.78-0.5L540.78-0.5 540.78 0 534.28 0 534.28-0.5Q534.63-0.5 534.94-0.8 535.24-1.1 535.46-1.5 535.69-1.9 535.78-2.38 535.88-2.85 535.88-3.25L535.88-3.25 535.88-28.8Q535.88-29.65 535.63-30.4 535.38-31.15 534.19-31.2L534.19-31.2 534.19-31.7 539.19-33.25 539.19-18.8Q539.53-19.2 540.09-19.68 540.63-20.15 541.41-20.58 542.19-21 543.21-21.28 544.24-21.55 545.63-21.55L545.63-21.55Q547.99-21.55 549.63-20.75 551.28-19.95 552.34-18.68 553.38-17.4 553.86-15.88 554.34-14.35 554.34-12.9L554.34-12.9ZM595.33-16.9L595.33-17.4 602.48-17.4 602.48-16.9 602.23-16.9Q601.83-16.9 601.53-16.63 601.23-16.35 601.03-15.95 600.83-15.55 600.7-15.1 600.58-14.65 600.58-14.3L600.58-14.3 600.58-0.9Q599.68-0.55 598.53-0.3 597.38-0.05 596.13 0.13 594.88 0.3 593.58 0.4 592.28 0.5 591.18 0.5L591.18 0.5Q586.68 0.5 583.33-1 579.98-2.5 577.78-4.93 575.58-7.35 574.5-10.4 573.43-13.45 573.43-16.55L573.43-16.55Q573.43-19.65 574.5-22.7 575.58-25.75 577.8-28.15 580.03-30.55 583.4-32.02 586.78-33.5 591.43-33.5L591.43-33.5Q593.18-33.5 594.68-33.2 596.18-32.9 597.33-32.65L597.33-32.65Q597.98-32.5 598.45-32.38 598.93-32.25 599.28-32.25L599.28-32.25 599.73-32.25 599.73-26.95 599.23-26.95Q598.93-28.5 598.05-29.45 597.18-30.4 596.03-30.9 594.88-31.4 593.6-31.58 592.33-31.75 591.23-31.75L591.23-31.75Q587.48-31.75 584.73-30.43 581.98-29.1 580.23-27 578.48-24.9 577.63-22.28 576.78-19.65 576.78-17.05L576.78-17.05Q576.78-14.15 577.88-11.33 578.98-8.5 580.98-6.28 582.98-4.05 585.8-2.68 588.63-1.3 592.08-1.3L592.08-1.3Q593.03-1.3 594.43-1.53 595.83-1.75 597.23-2.55L597.23-2.55 597.23-14.3Q597.23-14.65 597.13-15.1 597.03-15.55 596.8-15.95 596.58-16.35 596.28-16.63 595.98-16.9 595.58-16.9L595.58-16.9 595.33-16.9ZM626.78-10.1L609.43-10.1Q609.63-8.35 610.28-6.78 610.93-5.2 612-4 613.08-2.8 614.63-2.08 616.18-1.35 618.23-1.35L618.23-1.35Q619.33-1.35 620.55-1.68 621.78-2 622.83-2.6 623.88-3.2 624.7-4.08 625.53-4.95 625.83-6.05L625.83-6.05 626.28-6.05 626.28-2.3Q625.98-2.3 625.6-2.1 625.23-1.9 624.73-1.6L624.73-1.6Q623.73-1 622.03-0.33 620.33 0.35 617.53 0.35L617.53 0.35Q615.28 0.35 613.25-0.3 611.23-0.95 609.68-2.3 608.13-3.65 607.2-5.75 606.28-7.85 606.28-10.75L606.28-10.75Q606.28-12.6 606.9-14.5 607.53-16.4 608.8-17.93 610.08-19.45 612.08-20.4 614.08-21.35 616.88-21.35L616.88-21.35Q619.38-21.35 621.25-20.5 623.13-19.65 624.35-18.15 625.58-16.65 626.18-14.6 626.78-12.55 626.78-10.1L626.78-10.1ZM616.68-19.7L616.68-19.7Q614.93-19.7 613.65-19 612.38-18.3 611.48-17.2 610.58-16.1 610.08-14.7 609.58-13.3 609.43-11.9L609.43-11.9 623.68-11.9Q623.63-13.35 623.15-14.75 622.68-16.15 621.83-17.25 620.98-18.35 619.68-19.03 618.38-19.7 616.68-19.7ZM651.02-12.9L651.02-3.25Q651.02-2.85 651.12-2.38 651.22-1.9 651.45-1.5 651.67-1.1 651.95-0.8 652.22-0.5 652.62-0.5L652.62-0.5 652.62 0 646.17 0 646.17-0.5Q646.52-0.5 646.82-0.8 647.12-1.1 647.35-1.5 647.57-1.9 647.67-2.38 647.77-2.85 647.77-3.25L647.77-3.25 647.77-12.55Q647.77-14.35 647.27-15.7 646.77-17.05 645.92-17.95 645.07-18.85 644-19.28 642.92-19.7 641.82-19.7L641.82-19.7Q640.72-19.7 639.65-19.25 638.57-18.8 637.75-18.07 636.92-17.35 636.4-16.38 635.87-15.4 635.87-14.35L635.87-14.35 635.87-3.25Q635.87-2.85 635.97-2.38 636.07-1.9 636.3-1.5 636.52-1.1 636.8-0.8 637.07-0.5 637.47-0.5L637.47-0.5 637.47 0 630.97 0 630.97-0.5Q631.32-0.5 631.62-0.8 631.92-1.1 632.15-1.5 632.37-1.9 632.47-2.38 632.57-2.85 632.57-3.25L632.57-3.25 632.57-17.05Q632.57-17.9 632.32-18.68 632.07-19.45 630.87-19.5L630.87-19.5 630.87-19.95 635.87-21.55 635.87-18.8Q636.22-19.2 636.77-19.68 637.32-20.15 638.1-20.58 638.87-21 639.9-21.28 640.92-21.55 642.32-21.55L642.32-21.55Q644.67-21.55 646.32-20.75 647.97-19.95 649.02-18.68 650.07-17.4 650.55-15.88 651.02-14.35 651.02-12.9L651.02-12.9ZM664.72 0L658.22 0 658.22-0.5Q658.62-0.5 658.92-0.8 659.22-1.1 659.42-1.5 659.62-1.9 659.72-2.38 659.82-2.85 659.82-3.25L659.82-3.25 659.82-17.1Q659.82-17.95 659.57-18.73 659.32-19.5 658.12-19.55L658.12-19.55 658.12-20 663.12-21.6 663.12-3.25Q663.12-2.85 663.22-2.38 663.32-1.9 663.52-1.5 663.72-1.1 664.02-0.8 664.32-0.5 664.72-0.5L664.72-0.5 664.72 0ZM658.47-26.4L658.47-26.4Q658.47-27.4 659.15-28.1 659.82-28.8 660.82-28.8L660.82-28.8Q661.82-28.8 662.52-28.1 663.22-27.4 663.22-26.4L663.22-26.4Q663.22-25.4 662.52-24.75 661.82-24.1 660.82-24.1L660.82-24.1Q659.82-24.1 659.15-24.75 658.47-25.4 658.47-26.4ZM689.87-21.55L689.87-3.25Q689.87-2.9 689.97-2.43 690.07-1.95 690.24-1.53 690.42-1.1 690.72-0.8 691.02-0.5 691.42-0.5L691.42-0.5 691.42 0 686.57 0 686.57-2.75Q685.82-1.65 684.37-0.6 682.92 0.45 680.62 0.45L680.62 0.45Q677.72 0.45 676.02-0.55 674.32-1.55 673.42-3.1 672.52-4.65 672.27-6.48 672.02-8.3 672.02-9.9L672.02-9.9 672.02-17.05Q672.02-17.5 671.99-17.93 671.97-18.35 671.79-18.7 671.62-19.05 671.27-19.28 670.92-19.5 670.27-19.5L670.27-19.5 670.27-19.95 675.32-21.55 675.32-8.8Q675.32-5 676.97-3.2 678.62-1.4 681.02-1.4L681.02-1.4Q682.32-1.4 683.34-1.98 684.37-2.55 685.09-3.35 685.82-4.15 686.19-5 686.57-5.85 686.57-6.4L686.57-6.4 686.57-17.05Q686.57-17.5 686.54-17.93 686.52-18.35 686.34-18.7 686.17-19.05 685.82-19.28 685.47-19.5 684.82-19.5L684.82-19.5 684.82-19.95 689.87-21.55ZM712.52-5.7L712.52-5.7Q712.52-4.4 711.87-3.3 711.22-2.2 710.09-1.38 708.97-0.55 707.47-0.08 705.97 0.4 704.22 0.4L704.22 0.4Q702.07 0.4 700.72-0.18 699.37-0.75 698.42-1.35L698.42-1.35Q697.77-1.75 697.22-2.02 696.67-2.3 696.02-2.3L696.02-2.3 696.02-6.1 696.52-6.1Q696.67-5.4 697.39-4.58 698.12-3.75 699.14-3.05 700.17-2.35 701.39-1.88 702.62-1.4 703.87-1.4L703.87-1.4Q704.77-1.4 705.72-1.6 706.67-1.8 707.44-2.25 708.22-2.7 708.74-3.38 709.27-4.05 709.27-5L709.27-5Q709.27-5.95 708.72-6.65 708.17-7.35 707.32-7.88 706.47-8.4 705.37-8.8 704.27-9.2 703.17-9.55L703.17-9.55Q701.87-9.95 700.54-10.45 699.22-10.95 698.17-11.63 697.12-12.3 696.47-13.28 695.82-14.25 695.82-15.6L695.82-15.6Q695.82-16.75 696.24-17.8 696.67-18.85 697.64-19.63 698.62-20.4 700.17-20.88 701.72-21.35 703.92-21.35L703.92-21.35Q705.87-21.35 706.94-21.03 708.02-20.7 708.72-20.35L708.72-20.35Q709.17-20.1 709.62-19.98 710.07-19.85 710.62-19.85L710.62-19.85 710.62-16.35 710.22-16.35Q709.32-18 707.47-18.85 705.62-19.7 703.67-19.7L703.67-19.7Q702.42-19.7 701.52-19.38 700.62-19.05 700.04-18.57 699.47-18.1 699.19-17.5 698.92-16.9 698.92-16.3L698.92-16.3Q698.92-15.45 699.39-14.85 699.87-14.25 700.69-13.8 701.52-13.35 702.54-12.95 703.57-12.55 704.72-12.2L704.72-12.2Q706.12-11.75 707.52-11.23 708.92-10.7 710.02-9.95 711.12-9.2 711.82-8.18 712.52-7.15 712.52-5.7ZM750.06-8.85L750.06-8.85Q750.06-6.35 749.06-4.58 748.06-2.8 746.49-1.7 744.91-0.6 742.94-0.1 740.96 0.4 739.01 0.4L739.01 0.4Q737.01 0.4 735.56 0 734.11-0.4 732.91-0.75L732.91-0.75Q732.11-1 731.46-1.18 730.81-1.35 730.16-1.35L730.16-1.35 730.16-7.05 730.66-7.05Q730.66-5.15 731.64-4.03 732.61-2.9 733.91-2.3 735.21-1.7 736.51-1.53 737.81-1.35 738.41-1.35L738.41-1.35Q740.56-1.35 742.11-1.98 743.66-2.6 744.66-3.63 745.66-4.65 746.14-5.9 746.61-7.15 746.61-8.45L746.61-8.45Q746.61-10.1 745.91-11.23 745.21-12.35 744.09-13.2 742.96-14.05 741.51-14.65 740.06-15.25 738.56-15.85L738.56-15.85Q736.86-16.5 735.21-17.2 733.56-17.9 732.26-18.93 730.96-19.95 730.16-21.38 729.36-22.8 729.36-24.9L729.36-24.9Q729.36-27.1 730.21-28.73 731.06-30.35 732.49-31.4 733.91-32.45 735.74-32.98 737.56-33.5 739.46-33.5L739.46-33.5Q740.76-33.5 741.91-33.33 743.06-33.15 744.11-32.9L744.11-32.9Q744.96-32.7 745.76-32.58 746.56-32.45 747.31-32.45L747.31-32.45 747.31-27.3 746.81-27.3Q746.71-29.9 744.76-30.83 742.81-31.75 739.36-31.75L739.36-31.75Q737.36-31.75 736.09-31.08 734.81-30.4 734.06-29.43 733.31-28.45 733.04-27.33 732.76-26.2 732.76-25.35L732.76-25.35Q732.76-23.95 733.39-22.95 734.01-21.95 735.06-21.2 736.11-20.45 737.49-19.85 738.86-19.25 740.36-18.7L740.36-18.7Q742.06-18.05 743.81-17.3 745.56-16.55 746.94-15.45 748.31-14.35 749.19-12.75 750.06-11.15 750.06-8.85ZM764.81 0.35L764.81 0.35Q762.31 0.35 760.31-0.48 758.31-1.3 756.88-2.73 755.46-4.15 754.68-6.1 753.91-8.05 753.91-10.35L753.91-10.35Q753.91-12.8 754.76-14.83 755.61-16.85 757.11-18.3 758.61-19.75 760.66-20.55 762.71-21.35 765.11-21.35L765.11-21.35Q767.51-21.35 769.51-20.58 771.51-19.8 772.96-18.4 774.41-17 775.21-15.08 776.01-13.15 776.01-10.85L776.01-10.85Q776.01-8.7 775.28-6.68 774.56-4.65 773.13-3.1 771.71-1.55 769.63-0.6 767.56 0.35 764.81 0.35ZM764.51-19.7L764.51-19.7Q762.71-19.6 761.33-18.82 759.96-18.05 759.03-16.82 758.11-15.6 757.63-14.05 757.16-12.5 757.16-10.9L757.16-10.9Q757.16-9.05 757.73-7.33 758.31-5.6 759.38-4.25 760.46-2.9 761.96-2.1 763.46-1.3 765.31-1.3L765.31-1.3Q767.16-1.3 768.58-2.1 770.01-2.9 770.96-4.17 771.91-5.45 772.38-7.05 772.86-8.65 772.86-10.25L772.86-10.25Q772.86-11.9 772.36-13.58 771.86-15.25 770.81-16.63 769.76-18 768.18-18.85 766.61-19.7 764.51-19.7ZM790.76-19.3L785.11-19.3 785.11-3.25Q785.11-2.85 785.21-2.38 785.31-1.9 785.53-1.5 785.76-1.1 786.03-0.8 786.31-0.5 786.71-0.5L786.71-0.5 786.71 0 780.21 0 780.21-0.5Q780.56-0.5 780.86-0.8 781.16-1.1 781.38-1.5 781.61-1.9 781.71-2.38 781.81-2.85 781.81-3.25L781.81-3.25 781.81-19.3 779.31-19.3 779.31-21 781.81-21 781.81-25.05Q781.81-26.6 781.91-28.05 782.01-29.5 782.51-30.65 783.01-31.8 784.03-32.5 785.06-33.2 786.86-33.2L786.86-33.2Q787.86-33.2 788.58-32.98 789.31-32.75 789.83-32.48 790.36-32.2 790.71-31.98 791.06-31.75 791.31-31.75L791.31-31.75 791.31-28.1 790.86-28.1Q790.61-29.55 789.56-30.53 788.51-31.5 787.46-31.5L787.46-31.5Q786.01-31.5 785.56-29.98 785.11-28.45 785.11-25.75L785.11-25.75 785.11-21 790.76-21 790.76-19.3ZM804.95-19.3L799.35-19.3 799.35-7.25Q799.35-5.95 799.4-4.9 799.45-3.85 799.65-3.15 799.85-2.45 800.25-2.08 800.65-1.7 801.35-1.7L801.35-1.7Q802.4-1.7 803.33-2.7 804.25-3.7 804.5-5.1L804.5-5.1 804.95-5.1 804.95-1.45Q804.5-1.45 804.2-1.15L804.2-1.15Q803.8-0.8 803.08-0.4 802.35 0 800.9 0L800.9 0Q799.1 0 798.1-0.7 797.1-1.4 796.65-2.55 796.2-3.7 796.13-5.1 796.05-6.5 796.05-7.95L796.05-7.95 796.05-19.3 793.25-19.3 793.25-21 796.05-21 796.05-25.45Q796.05-26.3 795.83-27.03 795.6-27.75 794.35-27.8L794.35-27.8 794.35-28.3 799.35-29.9 799.35-21 804.95-21 804.95-19.3Z" opacity="1" transform="matrix(1,0,0,1,0,0)" fill="#ffffff" class="slogan-text-1" data-fill-palette-color="quaternary" id="text-1"></path></svg></g></svg></g></svg></g></svg></g><g></g></svg></g></svg></g></svg></g></svg></g><defs></defs></svg><rect width="342.85155851775386" height="342.85155851775386" fill="none" stroke="none" visibility="hidden"></rect></g></svg></g></svg>